<svg width="138" height="26" viewBox="0 0 138 26" fill="none" xmlns="http://www.w3.org/2000/svg">
<path d="M3.65882 20.4119C2.63012 20.4141 1.67978 19.8627 1.1713 18.9684C0.670149 18.0797 0.700201 16.987 1.24944 16.1271L6.37209 8.08282C6.90586 7.20265 7.87193 6.67774 8.90085 6.70883C9.92902 6.73347 10.8642 7.30994 11.3482 8.2174C11.8257 9.12038 11.7661 10.2068 11.1941 11.0544L6.07471 19.0987C5.54708 19.9209 4.63574 20.4163 3.65882 20.4119Z" fill="#F62B54"/>
<path d="M12.4466 20.4116C11.4134 20.4116 10.4627 19.8591 9.96344 18.9713C9.4634 18.085 9.49345 16.995 10.0416 16.1376L15.1545 8.11177C15.6805 7.21896 16.6495 6.68173 17.6854 6.70847C18.7273 6.73126 19.6715 7.31407 20.149 8.22573C20.6233 9.13739 20.5538 10.2303 19.9645 11.0757L14.8527 19.1016C14.3268 19.9202 13.4196 20.4141 12.4466 20.4116Z" fill="#FFCC00"/>
<path d="M21.0348 20.4798C22.4913 20.4798 23.672 19.3238 23.672 17.8979C23.672 16.4719 22.4913 15.3159 21.0348 15.3159C19.5782 15.3159 18.3975 16.4719 18.3975 17.8979C18.3975 19.3238 19.5782 20.4798 21.0348 20.4798Z" fill="#00CA72"/>
<path d="M135.608 15.4645C136.404 15.4645 136.881 16.031 136.881 16.9589V20.1389H137.963V16.8862C137.963 15.3082 137.219 14.3933 135.821 14.3933C135.274 14.3933 134.406 14.543 133.889 15.5491C133.643 14.9445 133.086 14.5234 132.437 14.453C132.237 14.4163 132.033 14.4042 131.83 14.4172C131.385 14.453 130.592 14.7297 130.296 15.357V14.5137H129.213V20.1389H130.296V17.1033C130.296 15.9225 131.069 15.4645 131.843 15.4645C132.568 15.4645 133.044 16.0191 133.044 16.947V20.1389H134.121V17.1033C134.121 16.1634 134.685 15.4536 135.608 15.4645ZM125.238 19.199C125.732 19.2099 126.21 19.0123 126.556 18.6542C126.904 18.296 127.088 17.8087 127.07 17.3084C127.07 16.1753 126.236 15.4645 125.238 15.4645C124.238 15.4645 123.406 16.1753 123.406 17.3084C123.386 17.8076 123.571 18.2939 123.916 18.6509C124.261 19.0091 124.736 19.2077 125.229 19.199H125.238ZM125.238 20.2539C123.655 20.2539 122.334 19.0851 122.334 17.3019C122.334 15.5187 123.655 14.3868 125.238 14.3868C126.82 14.3868 128.152 15.5187 128.152 17.3019C128.152 19.0851 126.812 20.2594 125.23 20.2594L125.238 20.2539ZM116.761 17.3019L116.75 17.3084C116.75 15.5253 118.106 14.3933 119.699 14.3868C120.509 14.3711 121.287 14.6992 121.841 15.2897L121.02 15.9887C120.668 15.643 120.193 15.4524 119.699 15.459C118.701 15.459 117.833 16.1699 117.833 17.3019C117.833 18.067 118.287 18.7562 118.985 19.0492C119.683 19.3423 120.486 19.1795 121.02 18.639L121.852 19.3379C121.297 19.9345 120.514 20.2674 119.699 20.2539C118.118 20.2539 116.761 19.0851 116.761 17.3019ZM113.296 19.059C113.294 18.8604 113.37 18.669 113.509 18.5269C113.648 18.3849 113.838 18.3038 114.036 18.3015C114.235 18.3038 114.424 18.3849 114.563 18.5269C114.702 18.669 114.779 18.8604 114.776 19.059C114.756 19.4544 114.432 19.7658 114.036 19.7699C113.64 19.7658 113.316 19.4544 113.296 19.059Z" fill="#333333"/>
<path d="M116.257 7.36327H112.403L109.702 14.3277L107.014 7.36327H103.161L107.846 18.3683L104.932 25.6442H108.757L116.257 7.36327ZM92.8187 13.4844C92.8187 15.2426 94.3555 16.3995 95.8651 16.3995C97.3488 16.3995 98.8063 15.3229 98.8063 13.4833C98.8063 11.6437 97.3488 10.566 95.8651 10.566C94.3555 10.566 92.8187 11.724 92.8187 13.4833V13.4844ZM98.8063 19.6294V18.2369C98.0249 19.4199 96.2016 19.8671 95.2661 19.8671C92.1686 19.8671 89.07 17.4251 89.07 13.4833C89.07 9.54256 92.1675 7.10063 95.2661 7.10063C96.0464 7.10063 97.8697 7.3611 98.8063 8.72858V7.36761H102.399V19.6316L98.8063 19.6305V19.6294ZM88.0477 19.6294H84.4553V18.1056C83.8551 19.2343 82.3998 19.892 80.889 19.892C77.7644 19.892 75.0045 17.3969 75.0045 13.5332C75.0045 9.59683 77.7644 7.09845 80.889 7.09845C82.3976 7.09845 83.8573 7.72793 84.4553 8.85774V0.682129H88.0477V19.6294ZM84.3772 13.4562C84.3772 11.6177 83.0499 10.54 81.5662 10.54C80.0294 10.54 78.7531 11.6958 78.7531 13.4562C78.7531 15.273 80.0294 16.4234 81.5652 16.4234C83.077 16.4256 84.3772 15.2165 84.3772 13.4562ZM66.1223 13.1393C66.1223 11.2747 67.0861 10.6441 68.3613 10.6441C69.5845 10.6441 70.4701 11.4581 70.4701 13.0861V19.6272H74.0885V12.2992C74.0885 8.80673 72.3694 7.09845 69.6355 7.09845C68.204 7.09845 66.7724 7.91243 66.1213 9.14751V7.36327H62.505V19.6272H66.1223V13.1393ZM55.1575 19.8378C51.7214 19.8378 48.8551 17.3166 48.8551 13.4551C48.8551 9.5914 51.7182 7.0952 55.1575 7.0952C58.5968 7.0952 61.4848 9.5914 61.4848 13.4551C61.4848 17.3188 58.5936 19.8389 55.1575 19.8389V19.8378ZM55.1575 16.2671C56.6661 16.2671 57.9174 15.1623 57.9174 13.4562C57.9174 11.8011 56.6672 10.6713 55.1575 10.6713C54.4229 10.6598 53.7158 10.9505 53.2018 11.4755C52.6849 12.0031 52.4041 12.7178 52.4236 13.4562C52.4247 15.1644 53.6739 16.2671 55.1575 16.2671ZM42.3683 10.6452C43.4351 10.6452 44.3728 11.4863 44.3728 13.0872V19.6294H47.9652V12.6639C47.9652 8.96084 46.1647 7.09628 43.2788 7.09628C42.4214 7.09628 40.8065 7.35676 39.6344 9.27558C38.9571 7.85708 37.6559 7.12125 35.7327 7.12125C34.369 7.11431 33.1272 7.9054 32.5571 9.14426V7.36436H28.9365V19.6283H32.5538V13.1393C32.5538 11.2747 33.5697 10.6441 34.6626 10.6441C35.7045 10.6441 36.64 11.4581 36.6672 13.0079V19.6283H40.2856V13.1393C40.2856 11.3561 41.2233 10.6463 42.3683 10.6463V10.6452Z" fill="#333333"/>
</svg>
