<svg width="34" height="29" viewBox="0 0 34 29" fill="none" xmlns="http://www.w3.org/2000/svg">
<path d="M32.4952 1.33515L32.5622 0.853755L32.0829 0.773171C27.4875 0.000559568 23.9429 0.857276 21.6031 3.49838C19.3072 6.05718 18.2003 9.78065 18.2003 14.5838V28V28.5H18.7003H32H32.5V28V14.5838V14.0838H32H25.5944C25.4443 12.7423 25.5279 11.5811 25.8275 10.5895C26.1871 9.47372 26.8043 8.65474 27.673 8.09975L27.6731 8.09987L27.6828 8.09331C28.5391 7.51744 29.6867 7.26228 31.1758 7.38746L31.6476 7.42712L31.7129 6.95812L32.4952 1.33515ZM14.7949 1.33515L14.8619 0.853755L14.3826 0.773171C9.78718 0.000559568 6.24258 0.857276 3.90281 3.49838C1.6069 6.05718 0.5 9.78065 0.5 14.5838V28V28.5H1H14.2997H14.7997V28V14.5838V14.0838H14.2997H7.89408C7.74394 12.7424 7.82753 11.5811 8.12713 10.5896C8.48673 9.47377 9.10395 8.65476 9.97266 8.09975L9.97274 8.09987L9.9825 8.09331C10.8388 7.51744 11.9864 7.26228 13.4755 7.38746L13.9473 7.42712L14.0126 6.95812L14.7949 1.33515Z" fill="#FF7F5C" stroke="black"/>
</svg>
