<svg width="108" height="98" viewBox="0 0 108 98" fill="none" xmlns="http://www.w3.org/2000/svg">
<path fill-rule="evenodd" clip-rule="evenodd" d="M24.397 63.4769C25.9892 63.8505 27.4968 63.6169 28.9246 62.7951C27.3577 62.6054 25.8935 63.1592 24.397 63.4769ZM37.0521 48.0322C37.1602 53.2271 35.5965 57.0506 33.4792 60.6409C31.9951 63.1576 29.5712 64.4167 26.6477 64.5658C24.158 64.693 21.7063 64.4992 19.3317 63.5962C17.5415 62.9161 16.3548 61.6018 15.3645 60.085C13.5234 57.2643 11.3612 54.548 11.2871 50.9614C11.1939 46.4831 12.1163 42.2706 15.0741 38.7346C16.3267 37.2377 17.8132 36.2328 19.9725 36.5696C22.1155 36.9038 22.9804 39.5137 22.9642 41.0773C22.9568 41.8009 22.3529 42.1654 21.9967 42.59C20.3742 44.5243 20.0433 46.9453 19.2783 49.2027C19.1205 49.6674 19.4406 49.7954 19.7968 49.8729C22.1081 50.3749 24.2068 50.227 25.7787 48.1196C26.6121 47.0029 27.5134 45.9442 28.0643 44.6424C28.3265 44.0235 28.3389 43.4561 28.1086 42.7971C27.8365 42.0159 27.2856 41.055 28.6587 40.6275C28.9395 40.5401 28.8819 40.3011 28.7506 40.0725C28.1745 39.0726 28.5071 38.0984 29.5923 37.5711C31.79 36.5029 35.2055 38.455 35.4176 40.8943C35.44 41.1506 35.4561 41.4485 35.5924 41.6473C37.1179 43.869 36.8189 46.4603 37.0521 48.0322Z" fill="black"/>
<path fill-rule="evenodd" clip-rule="evenodd" d="M67.25 48.5986C65.995 48.4026 64.7731 48.4917 63.6187 49.0326C64.8659 49.1892 66.1085 49.3284 67.25 48.5986ZM60.3287 23.6293C59.8035 24.0836 59.0737 23.8587 58.7635 24.5094C59.1731 24.8226 59.5496 24.3868 59.9067 24.4643C60.4045 24.5728 61.4259 24.3972 60.6183 25.4642C60.5586 25.5433 60.4194 25.6224 60.5884 25.7057C61.9872 26.3965 60.9401 27.285 60.7201 28.0368C60.4915 28.8225 60.1399 29.5751 60.1212 30.4081C60.0955 31.5732 60.0839 32.7388 60.0997 33.9031C60.1187 35.3325 60.3407 35.516 61.7577 35.3814C64.2019 35.149 65.9171 33.3874 65.8579 30.9383C65.809 28.9302 66.2079 27.0087 66.6602 25.0922C66.8934 24.1048 67.513 23.3132 68.6103 23.1248C69.9022 22.9023 71.7764 23.6972 72.2577 24.8441C73.0679 26.7743 73.7977 28.7691 74.0848 30.8426C74.651 34.9361 74.5346 39.0193 73.3872 43.0321C72.9391 44.599 72.3277 46.1262 71.3813 47.4193C70.1366 49.1196 68.2673 49.8846 66.1822 50.1025C63.5479 50.3775 61.0097 50.2918 58.8074 48.4946C58.3248 48.1007 58.0204 47.5862 57.6919 47.1319C55.529 44.1384 52.9377 41.3264 52.4249 37.4686C51.8343 33.0258 52.5185 28.7645 54.8074 24.8507C55.6014 23.4926 56.6879 22.4728 58.4462 22.6712C59.164 22.7524 59.8325 22.9653 60.3287 23.6293Z" fill="black"/>
<path fill-rule="evenodd" clip-rule="evenodd" d="M51.127 84.2328C52.3087 84.8329 54.3201 84.7679 55.2773 84.1425C53.898 84.0658 52.5817 83.966 51.127 84.2328ZM64.0277 71.6775C64.1416 75.4931 63.0452 79.3224 60.4813 82.6882C59.4156 84.087 57.9651 84.963 56.2681 85.342C53.3529 85.9927 50.5165 85.7197 47.8022 84.4076C46.2233 83.6446 45.2151 82.3448 44.1842 80.9718C42.2685 78.4199 41.3225 75.4708 40.5268 72.4897C39.6164 69.0796 40.2596 65.7921 41.8315 62.6206C42.3716 61.5304 42.7415 60.4332 43.8623 59.7804C44.7156 59.2834 45.5295 59.4987 46.3488 59.7974C46.5451 59.869 46.8508 60.1026 46.8347 60.2261C46.606 61.974 48.0955 63.4341 47.6428 65.2168C47.4676 65.9073 47.3719 66.6193 47.2617 67.3247C46.9556 69.2842 48.0222 70.7302 50.0348 70.9489C51.9948 71.1618 53.7145 70.5637 54.9232 68.9595C55.9193 67.6382 56.6338 66.1458 57.0157 64.5168C57.3326 63.1648 58.3992 62.4375 59.7776 62.6438C62.0677 62.9863 62.6368 63.6002 62.8829 65.9868C62.8978 66.1351 62.8903 66.3202 62.9748 66.4205C64.1814 67.8648 63.8119 69.6318 64.0277 71.6775Z" fill="black"/>
<path fill-rule="evenodd" clip-rule="evenodd" d="M95.5633 31.1069C96.3494 31.3003 97.1339 31.6159 97.8588 31.0307C97.0838 30.9528 96.3097 30.7548 95.5633 31.1069ZM93.9802 14.0799C95.6685 14.6055 94.3302 15.5971 94.3364 16.3514C94.3393 16.7217 93.911 17.1404 94.3157 17.5327C94.71 17.9146 95.2087 17.886 95.6908 17.6926C97.843 16.8298 99.0069 15.0918 99.4613 12.9574C99.7948 11.3892 100.344 9.89067 100.678 8.32747C100.977 6.92499 102.408 6.18232 103.819 6.50167C105.505 6.88315 106.559 7.80309 106.793 9.57877C107.07 11.6895 107.666 13.7278 107.603 15.9198C107.456 21.0174 106.013 25.5955 102.849 29.6104C99.8966 33.3552 94.2382 33.5179 91.1997 29.8166C90.2143 28.6159 89.301 27.2382 89.1224 25.5653C89.093 25.2894 88.9083 25.0165 88.7526 24.7688C86.1563 20.65 86.4243 16.4015 88.3483 12.1779C89.6655 9.28759 91.9299 9.42718 93.771 10.804C94.0013 10.9763 94.3194 11.1817 94.2664 11.511C94.1985 11.9339 93.7756 11.7239 93.5171 11.8117C93.2715 11.8954 92.9314 11.9062 92.9737 12.2549C93.0172 12.6194 93.363 12.5109 93.6116 12.537C94.0635 12.5842 94.5381 12.614 94.7121 13.1467C94.8993 13.7208 94.2478 13.7224 93.9802 14.0799Z" fill="black"/>
<path fill-rule="evenodd" clip-rule="evenodd" d="M15.2577 90.267C15.0108 90.6319 15.1665 90.9558 15.5343 90.9923C16.1122 91.049 15.7539 90.6195 15.7733 90.3747C15.8011 90.0255 15.9643 90.2471 16.1378 90.2794C16.5193 90.3507 16.4883 89.9957 16.3321 89.8934C16.0728 89.7228 15.7141 89.5828 15.4188 89.6171C15.0709 89.6569 15.1653 89.9994 15.2577 90.267ZM13.8084 94.8373C12.9261 94.5644 11.92 95.6251 11.3807 94.2454C11.3783 94.8419 11.0283 95.7249 11.7216 95.6897C12.3549 95.6574 13.3076 95.7121 13.8084 94.8373ZM19.1242 91.6235C19.7783 92.0129 19.9083 91.2073 20.5992 91.2412C19.6635 91.9706 19.1271 92.7663 18.763 93.7662C18.5224 94.4268 17.5196 94.8294 16.8801 95.1426C14.614 96.2522 12.1723 96.9912 9.61458 97.0632C8.84044 97.0852 8.09322 96.5997 7.28015 96.5438C7.02831 96.5268 6.79139 96.3218 6.8092 96.0054C6.81334 95.9262 6.95293 95.7817 7.0105 95.7908C7.47813 95.8658 7.80618 95.8268 7.57547 95.2242C7.47234 94.9549 7.51003 94.5822 7.15133 94.4815C6.52133 94.3046 7.01589 95.1989 6.53086 95.1575C6.06778 95.5501 6.67251 93.6196 5.83293 94.8547C5.77991 94.8129 5.7008 94.781 5.67802 94.7263C5.17932 93.5239 4.00961 92.8545 3.35932 91.7283C2.73967 90.6555 1.94399 89.6851 1.47636 88.5062C0.0701466 84.9661 -0.37512 81.3219 0.329437 77.5759C0.69559 75.6275 1.9324 74.8339 3.71677 75.1806C4.32772 75.299 4.80032 75.6047 5.04346 76.1258C5.96257 78.0965 7.34932 79.9315 6.62902 82.3645C6.40618 83.1171 6.83364 83.9215 7.3692 84.5365C7.70015 84.9164 8.10441 85.1425 8.66358 84.8571C9.73305 84.3112 10.7959 83.7885 11.5522 82.7903C12.0923 82.0774 12.736 81.4429 13.3113 80.7553C14.1058 79.8055 14.3228 78.5998 14.4114 77.4583C14.5469 75.7178 15.6677 74.9018 17.2926 75.6354C17.9533 75.9336 18.5965 76.3788 18.8749 77.0304C19.6117 78.7526 20.4493 80.4082 20.8469 82.3057C21.2354 84.1592 21.346 85.9593 21.2516 87.8116C21.2106 88.6177 20.6932 89.3193 20.7649 90.163C20.7781 90.3192 20.4165 90.6419 20.2111 90.6572C19.5459 90.7069 19.5049 91.2988 19.1242 91.6235Z" fill="black"/>
<path fill-rule="evenodd" clip-rule="evenodd" d="M85.3424 57.6245C84.6581 58.3298 84.456 58.3978 84.2257 57.9488C83.9138 57.3407 83.0233 57.1336 82.5635 57.5743C82.2814 57.8444 82.2864 58.1965 82.5308 58.4483C82.9106 58.8401 85.1336 58.2064 85.3424 57.6245ZM87.1189 66.0704C86.689 65.6649 85.9807 65.9495 85.7599 65.6716C84.9907 64.7027 84.4738 65.8952 83.8252 65.8203C83.7113 65.807 83.2755 66.2278 83.4006 66.5207C83.5282 66.8185 84.0824 67.0492 84.2435 66.9113C85.0715 66.2013 86.1965 66.6213 87.1189 66.0704ZM84.7153 61.4956C84.258 61.4894 83.7254 61.5039 83.6516 62.1285C83.5646 62.8637 84.2419 62.5319 84.5769 62.6918C84.9928 62.891 85.3623 62.498 85.7069 62.6177C86.083 62.7477 86.3112 62.638 86.4475 62.3608C86.6455 61.9582 86.2748 61.6679 86.1091 61.3659C85.9335 61.0474 85.641 61.2856 85.4294 61.3978C85.2123 61.5134 85.0516 61.7955 84.7153 61.4956ZM93.8534 49.8317C94.4412 50.081 94.9365 50.3875 95.0272 50.9832C95.0977 51.4458 94.558 51.2085 94.2974 51.5104C95.5425 51.5394 95.2956 52.6337 95.1639 53.0881C94.816 54.2852 95.2571 55.4296 95.1171 56.5993C95.0248 57.3681 94.8479 58.1464 94.7841 58.9238C94.7183 59.7303 94.1781 58.619 93.759 58.6774C93.539 58.9172 93.5552 59.169 93.8368 59.3119C94.1259 59.459 94.6391 59.4291 94.5985 59.8367C94.5493 60.3317 94.4059 61.0909 94.0833 61.2317C93.2139 61.6111 93.4152 62.4735 93.4686 62.8728C93.5838 63.7343 93.1907 63.6287 92.733 63.4995C92.0711 63.3119 91.6739 63.5231 91.5409 64.1651C91.3715 64.9844 90.4507 64.8494 90.0394 65.4264C89.636 65.9917 89.0043 66.3914 89.0594 67.2372C87.9225 67.101 88.4481 66.0994 87.997 65.4914C87.8363 67.4775 86.3688 67.4431 85.0396 67.591C84.5981 67.6407 84.0977 67.4708 83.71 67.6216C82.8965 67.9372 82.9558 67.5437 83.1616 66.8019C82.7081 67.6858 82.2893 67.9869 81.651 67.2522C81.4195 66.9858 81.0364 67.0264 80.7083 66.9531C80.1044 66.8177 80.0307 66.6768 80.0468 65.8994C80.0514 65.6803 79.9126 65.7026 79.778 65.6409C78.3925 65.0064 77.7907 63.8462 77.7803 62.3265C77.7754 61.6029 78.0711 60.4493 76.6429 60.5247C76.4462 60.5346 76.4068 60.3851 76.3435 60.2505C75.0321 57.46 75.4591 54.7768 76.9341 52.2096C77.6151 51.025 79.3576 50.4356 80.6822 50.9011C81.1155 51.0536 81.5806 51.4661 81.7645 51.8787C81.9476 52.2883 81.487 52.4519 81.067 52.5058C80.7402 52.5476 80.8413 52.828 80.9109 53.043C81.0277 53.4029 81.2708 53.4961 81.6146 53.369C82.4513 53.0587 82.6397 53.1975 82.5416 54.1891C82.4699 54.9156 83.505 55.2047 84.0845 55.5982C84.4771 55.8649 84.6863 55.2933 84.8019 54.9649C84.8859 54.728 85.0156 54.5507 85.2053 54.4542C87.0381 53.5152 87.2398 51.7175 87.524 49.9928C87.6574 49.1839 87.6777 48.312 87.8342 47.5469C87.9929 46.7711 88.2385 45.9581 88.441 45.1582C88.7662 43.8763 89.822 43.8353 90.8339 43.8924C91.4879 43.9293 92.1353 44.1546 92.774 44.3377C92.9285 44.382 93.16 44.6057 93.1459 44.7217C93.0233 45.7303 94.2046 46.4506 93.7204 47.583C93.5983 47.8688 93.9897 48.4387 94.2448 48.8094C94.7303 49.5127 94.7485 49.5351 93.8534 49.8317Z" fill="black"/>
<path fill-rule="evenodd" clip-rule="evenodd" d="M44.7469 28.8494C43.8303 29.264 43.1849 29.7333 42.8002 30.5016C43.4289 30.0141 44.481 30.0141 44.7469 28.8494ZM41.1707 15.2251C42.0231 15.0664 42.4394 14.5595 42.9178 14.1701C43.8452 13.4146 44.6032 13.6557 44.8778 14.8714C44.9971 15.3986 45.0265 15.6923 45.7435 15.8385C46.4509 15.9831 46.6091 16.9937 46.9302 17.6511C47.9197 19.679 48.2999 21.8581 48.1715 24.0981C48.0005 27.0861 46.5139 29.3274 44.0693 30.9937C42.9489 31.7575 41.797 32.2073 40.3845 32.0412C39.7123 31.9621 39.325 31.533 38.8068 31.2754C37.0249 30.3906 35.1847 29.6244 33.5212 28.4982C31.7315 27.287 29.6484 22.7511 30.5212 20.3463C31.0803 18.805 32.0235 17.876 33.59 17.55C34.4909 17.3624 34.903 17.7364 34.9689 18.8386C35.4535 18.4981 35.6879 18.1025 35.8217 17.5728C36.1357 16.3322 36.5971 15.1456 37.1803 13.9982C37.872 12.6359 39.021 11.9707 40.4355 11.6373C40.9909 11.5064 41.5447 11.5756 41.8823 12.0192C42.2103 12.4499 42.1822 12.9706 41.8844 13.4916C41.6093 13.9725 41.4532 14.5214 41.1707 15.2251Z" fill="black"/>
<path fill-rule="evenodd" clip-rule="evenodd" d="M67.0715 5.34097C67.7715 3.75375 68.0888 2.11517 69.3243 0.95789C69.5136 0.780612 69.6785 0.549487 69.9021 0.441381C70.4344 0.184162 71.1104 -0.233353 71.571 0.163866C71.9702 0.508482 71.9044 1.23665 71.7014 1.82895C71.6033 2.11351 71.2396 2.5041 71.6567 2.7141C72.0096 2.89097 72.2113 2.4341 72.4366 2.19925C72.5667 2.06339 72.6636 1.89481 72.7999 1.76765C73.0542 1.53032 73.1772 1.01629 73.656 1.206C74.0384 1.35677 74.3755 1.63221 74.4318 2.1015C74.484 2.53682 74.4803 2.94191 75.1575 2.647C75.5021 2.49706 75.7436 2.9444 75.9304 3.19706C77.9944 5.98795 78.4218 8.87535 75.7391 11.7197C74.9185 12.5891 74.0756 13.4369 73.2443 14.296C72.7875 14.7682 72.2324 14.762 71.6782 14.5652C71.0528 14.3432 71.7271 13.8358 71.4479 13.4295C70.8117 14.4522 70.1995 14.3163 69.3856 13.5786C68.8811 13.1217 68.2764 12.5506 67.3271 12.9329C66.9775 13.0737 66.3123 12.6852 65.9043 12.3849C63.8594 10.8801 62.6284 8.88819 62.5799 6.29611C62.5604 5.26807 62.898 4.35641 63.9376 3.89333C64.1369 3.80469 64.5391 3.7028 64.5544 3.73718C65.0311 4.80955 66.4208 4.38126 67.0715 5.34097Z" fill="black"/>
</svg>
